<svg width="24" height="24" viewBox="0 0 24 24" fill="none" xmlns="http://www.w3.org/2000/svg">
<mask id="mask0_375_2241" style="mask-type:alpha" maskUnits="userSpaceOnUse" x="0" y="0" width="24" height="24">
<rect width="24" height="24" fill="#D9D9D9"/>
</mask>
<g mask="url(#mask0_375_2241)">
<path d="M12 9C12.2833 9 12.5208 8.90417 12.7125 8.7125C12.9042 8.52083 13 8.28333 13 8C13 7.71667 12.9042 7.47917 12.7125 7.2875C12.5208 7.09583 12.2833 7 12 7C11.7167 7 11.4792 7.09583 11.2875 7.2875C11.0958 7.47917 11 7.71667 11 8C11 8.28333 11.0958 8.52083 11.2875 8.7125C11.4792 8.90417 11.7167 9 12 9ZM12 15C11.35 15 10.7625 14.8208 10.2375 14.4625C9.7125 14.1042 9.33333 13.6333 9.1 13.05C9.01667 13.05 8.94167 13.0542 8.875 13.0625C8.80833 13.0708 8.73333 13.075 8.65 13.075C7.78333 13.075 7.04167 12.7667 6.425 12.15C5.80833 11.5333 5.5 10.7917 5.5 9.925C5.5 9.575 5.55833 9.2375 5.675 8.9125C5.79167 8.5875 5.96667 8.28333 6.2 8C5.98333 7.71667 5.81667 7.4125 5.7 7.0875C5.58333 6.7625 5.525 6.425 5.525 6.075C5.525 5.20833 5.82917 4.46667 6.4375 3.85C7.04583 3.23333 7.78333 2.925 8.65 2.925C8.73333 2.925 8.80833 2.92917 8.875 2.9375C8.94167 2.94583 9.01667 2.95 9.1 2.95C9.33333 2.36667 9.7125 1.89583 10.2375 1.5375C10.7625 1.17917 11.35 1 12 1C12.65 1 13.2375 1.17917 13.7625 1.5375C14.2875 1.89583 14.6667 2.36667 14.9 2.95C14.9833 2.95 15.0583 2.94583 15.125 2.9375C15.1917 2.92917 15.2667 2.925 15.35 2.925C16.2167 2.925 16.9542 3.23333 17.5625 3.85C18.1708 4.46667 18.475 5.20833 18.475 6.075C18.475 6.425 18.4208 6.7625 18.3125 7.0875C18.2042 7.4125 18.0333 7.71667 17.8 8C18.0167 8.28333 18.1833 8.5875 18.3 8.9125C18.4167 9.2375 18.475 9.575 18.475 9.925C18.475 10.7917 18.1708 11.5333 17.5625 12.15C16.9542 12.7667 16.2167 13.075 15.35 13.075C15.2667 13.075 15.1917 13.0708 15.125 13.0625C15.0583 13.0542 14.9833 13.05 14.9 13.05C14.6667 13.6333 14.2875 14.1042 13.7625 14.4625C13.2375 14.8208 12.65 15 12 15ZM12 22C12 20.7667 12.2375 19.6042 12.7125 18.5125C13.1875 17.4208 13.8333 16.4667 14.65 15.65C15.4667 14.8333 16.4208 14.1875 17.5125 13.7125C18.6042 13.2375 19.7667 13 21 13C21 14.2333 20.7625 15.3958 20.2875 16.4875C19.8125 17.5792 19.1667 18.5333 18.35 19.35C17.5333 20.1667 16.5792 20.8125 15.4875 21.2875C14.3958 21.7625 13.2333 22 12 22ZM14.45 19.55C15.4 19.2 16.2333 18.6667 16.95 17.95C17.6667 17.2333 18.2 16.4 18.55 15.45C17.6 15.8 16.7667 16.3333 16.05 17.05C15.3333 17.7667 14.8 18.6 14.45 19.55ZM12 22C12 20.7667 11.7625 19.6042 11.2875 18.5125C10.8125 17.4208 10.1667 16.4667 9.35 15.65C8.53333 14.8333 7.57917 14.1875 6.4875 13.7125C5.39583 13.2375 4.23333 13 3 13C3 14.2333 3.2375 15.3958 3.7125 16.4875C4.1875 17.5792 4.83333 18.5333 5.65 19.35C6.46667 20.1667 7.42083 20.8125 8.5125 21.2875C9.60417 21.7625 10.7667 22 12 22ZM9.55 19.55C8.6 19.2 7.76667 18.6667 7.05 17.95C6.33333 17.2333 5.8 16.4 5.45 15.45C6.4 15.8 7.23333 16.3333 7.95 17.05C8.66667 17.7667 9.2 18.6 9.55 19.55ZM15.35 11.075C15.6667 11.075 15.9375 10.9625 16.1625 10.7375C16.3875 10.5125 16.5 10.2417 16.5 9.925C16.5 9.69167 16.4375 9.4875 16.3125 9.3125C16.1875 9.1375 16.025 9 15.825 8.9L14.95 8.475C14.9167 8.65833 14.8667 8.8375 14.8 9.0125C14.7333 9.1875 14.6583 9.35 14.575 9.5C14.4917 9.65 14.3917 9.79167 14.275 9.925C14.1583 10.0583 14.0333 10.1833 13.9 10.3L14.7 10.875C14.7833 10.9417 14.8792 10.9917 14.9875 11.025C15.0958 11.0583 15.2167 11.075 15.35 11.075ZM14.95 7.525L15.825 7.1C16.025 7 16.1833 6.85833 16.3 6.675C16.4167 6.49167 16.475 6.29167 16.475 6.075C16.475 5.75833 16.3667 5.4875 16.15 5.2625C15.9333 5.0375 15.6667 4.925 15.35 4.925C15.2167 4.925 15.1 4.94167 15 4.975C14.9 5.00833 14.8 5.05833 14.7 5.125L13.875 5.7C14.0083 5.81667 14.1375 5.94167 14.2625 6.075C14.3875 6.20833 14.4917 6.35 14.575 6.5C14.6583 6.65 14.7333 6.8125 14.8 6.9875C14.8667 7.1625 14.9167 7.34167 14.95 7.525ZM10.975 5.2C11.1417 5.13333 11.3083 5.08333 11.475 5.05C11.6417 5.01667 11.8167 5 12 5C12.1833 5 12.3583 5.01667 12.525 5.05C12.6917 5.08333 12.8583 5.13333 13.025 5.2L13.15 4.1C13.1833 3.8 13.0792 3.54167 12.8375 3.325C12.5958 3.10833 12.3167 3 12 3C11.6833 3 11.4042 3.10833 11.1625 3.325C10.9208 3.54167 10.8167 3.8 10.85 4.1L10.975 5.2ZM12 13C12.3167 13 12.5958 12.8917 12.8375 12.675C13.0792 12.4583 13.1833 12.2 13.15 11.9L13.025 10.8C12.8583 10.8667 12.6917 10.9167 12.525 10.95C12.3583 10.9833 12.1833 11 12 11C11.8167 11 11.6417 10.9833 11.475 10.95C11.3083 10.9167 11.1417 10.8667 10.975 10.8L10.85 11.9C10.8167 12.2 10.9208 12.4583 11.1625 12.675C11.4042 12.8917 11.6833 13 12 13ZM9.05 7.525C9.08333 7.34167 9.13333 7.1625 9.2 6.9875C9.26667 6.8125 9.34167 6.65 9.425 6.5C9.50833 6.35 9.60833 6.20833 9.725 6.075C9.84167 5.94167 9.96667 5.81667 10.1 5.7L9.3 5.125C9.21667 5.05833 9.12083 5.00833 9.0125 4.975C8.90417 4.94167 8.78333 4.925 8.65 4.925C8.33333 4.925 8.0625 5.0375 7.8375 5.2625C7.6125 5.4875 7.5 5.75833 7.5 6.075C7.5 6.29167 7.5625 6.49167 7.6875 6.675C7.8125 6.85833 7.975 7 8.175 7.1L9.05 7.525ZM8.65 11.05C8.78333 11.05 8.9 11.0375 9 11.0125C9.1 10.9875 9.2 10.9333 9.3 10.85L10.125 10.3C9.99167 10.1833 9.8625 10.0583 9.7375 9.925C9.6125 9.79167 9.50833 9.65 9.425 9.5C9.34167 9.35 9.26667 9.1875 9.2 9.0125C9.13333 8.8375 9.08333 8.65833 9.05 8.475L8.175 8.9C7.975 9 7.81667 9.14167 7.7 9.325C7.58333 9.50833 7.525 9.70833 7.525 9.925C7.54167 10.2417 7.65417 10.5083 7.8625 10.725C8.07083 10.9417 8.33333 11.05 8.65 11.05Z" fill="#1C1B1F"/>
</g>
</svg>
